<svg width="360" height="360" viewBox="0 0 360 360" fill="none" xmlns="http://www.w3.org/2000/svg">
<g clip-path="url(#clip0_3336_44954)">
<path d="M324.312 224.94C324.312 276.706 261.474 297.753 183.39 297.753C105.307 297.753 41.5536 276.706 41.5536 224.94C41.5536 173.174 104.849 131.209 182.933 131.209C261.016 131.209 324.312 173.174 324.312 224.94Z" fill="#29A874"/>
<path d="M309.9 111.992C309.894 101.818 306.749 91.893 300.892 83.5733C295.035 75.2535 286.753 68.9445 277.177 65.5077C267.6 62.071 257.196 61.6741 247.386 64.3713C237.576 67.0685 228.837 72.7283 222.363 80.5777C196.555 74.8798 169.814 74.8798 144.005 80.5777C136.141 70.9945 124.962 64.7174 112.686 62.9916C100.41 61.2658 87.9336 64.2173 77.732 71.2606C67.5303 78.304 60.3488 88.9246 57.612 101.016C54.8752 113.107 56.7831 125.785 62.9572 136.535C58.9889 144.879 56.914 153.997 56.8811 163.236C56.8811 211.251 113.424 250.169 183.162 250.169C252.9 250.169 309.442 211.251 309.442 163.236C309.413 153.996 307.338 144.877 303.366 136.535C307.659 129.069 309.913 120.605 309.9 111.992Z" fill="#3ACF92"/>
<path d="M101.949 139.445C118.626 139.445 132.146 125.925 132.146 109.247C132.146 92.5694 118.626 79.0496 101.949 79.0496C85.271 79.0496 71.7511 92.5694 71.7511 109.247C71.7511 125.925 85.271 139.445 101.949 139.445Z" fill="#EFFBF6"/>
<path d="M263.002 139.445C279.68 139.445 293.199 125.925 293.199 109.247C293.199 92.5694 279.68 79.0496 263.002 79.0496C246.324 79.0496 232.804 92.5694 232.804 109.247C232.804 125.925 246.324 139.445 263.002 139.445Z" fill="#EFFBF6"/>
<path d="M85.7975 294.092C87.33 294.094 88.8455 293.772 90.2452 293.148C91.6448 292.524 92.8972 291.612 93.9205 290.471C94.9438 289.331 95.715 287.987 96.1838 286.528C96.6526 285.069 96.8084 283.527 96.6412 282.004C94.0973 259.319 82.8144 210.18 33.3179 180.623C-32.5676 141.275 19.5918 276.706 19.5918 276.706L5.9663 284.557C4.99008 285.117 4.22626 285.984 3.79359 287.023C3.36091 288.062 3.28363 289.215 3.57375 290.302C3.86387 291.39 4.50514 292.351 5.39787 293.036C6.29059 293.722 7.38474 294.093 8.51021 294.092H85.7975Z" fill="#3ACF92"/>
<path d="M282.456 294.092C276.582 294.092 271.988 288.455 272.647 282.004C274.953 259.319 285.147 210.18 329.885 180.623C389.438 141.275 342.293 276.706 342.293 276.706L354.61 284.557C358.71 287.165 357.035 294.092 352.304 294.092H282.456Z" fill="#3ACF92"/>
<path d="M101.949 114.738C104.981 114.738 107.439 112.279 107.439 109.247C107.439 106.215 104.981 103.757 101.949 103.757C98.9163 103.757 96.4581 106.215 96.4581 109.247C96.4581 112.279 98.9163 114.738 101.949 114.738Z" fill="black"/>
<path d="M263.002 114.738C266.034 114.738 268.492 112.279 268.492 109.247C268.492 106.215 266.034 103.757 263.002 103.757C259.97 103.757 257.511 106.215 257.511 109.247C257.511 112.279 259.97 114.738 263.002 114.738Z" fill="black"/>
</g>
<defs>
<clipPath id="clip0_3336_44954">
<rect width="360" height="235.174" fill="white" transform="translate(0 62.5781)"/>
</clipPath>
</defs>
</svg>
